<svg xmlns="http://www.w3.org/2000/svg" width="951.238" height="632.163" viewBox="0 0 951.238 632.163">
  <g id="Group_166" data-name="Group 166" transform="translate(0 0)">
    <path id="Path_1155" data-name="Path 1155" d="M465.591,496.884c32.6-57.345,94.782-101.377,160.608-97.135a303.919,303.919,0,0,0-79.931,192.744c-1.081,27.643.6,58.5-17.759,79.2-11.42,12.88-28.877,19.117-46.04,20.426s-34.324-1.793-51.259-4.881L427.1,688.5C425.537,622.556,432.992,554.23,465.591,496.884Z" transform="translate(-124.382 -133.069)" fill="#f0f0f0"/>
    <path id="Path_1156" data-name="Path 1156" d="M626.3,401.13c-48.677,23.433-90.184,62.57-115.664,110.3-5.509,10.319-10.2,21.266-12.245,32.841s-.617,22.6,3.338,33.6c3.616,10.055,8.479,19.921,9.588,30.68,1.169,11.34-3,21.944-10.515,30.359-9.19,10.3-21.531,16.677-33.817,22.5-13.641,6.462-27.912,12.958-37.573,25.019-1.171,1.461-3.37-.441-2.2-1.9,16.81-20.983,45.583-24.928,65.536-41.831,9.31-7.887,16.3-18.628,15.859-31.214-.386-11.005-5.392-21.184-9.141-31.333-3.937-10.657-5.9-21.372-4.488-32.734,1.444-11.622,5.716-22.776,10.937-33.191,11.774-23.488,27.887-45.051,46.345-63.691a264.377,264.377,0,0,1,73.1-52.155c1.682-.81,2.612,1.947.942,2.751Z" transform="translate(-124.382 -133.069)" fill="#fff"/>
    <path id="Path_1157" data-name="Path 1157" d="M518.1,495.478A38.974,38.974,0,0,1,506.336,446.4c.851-1.666,3.48-.421,2.627,1.247A36.089,36.089,0,0,0,520,493.277c1.515,1.1-.393,3.292-1.9,2.2Z" transform="translate(-124.382 -133.069)" fill="#fff"/>
    <path id="Path_1158" data-name="Path 1158" d="M499.222,573.016a75.118,75.118,0,0,0,47.561-27.11c1.176-1.457,3.375.444,2.2,1.9a78.134,78.134,0,0,1-49.549,28.109c-1.855.266-2.058-2.635-.213-2.9Z" transform="translate(-124.382 -133.069)" fill="#fff"/>
    <path id="Path_1159" data-name="Path 1159" d="M574.907,432.685a22.061,22.061,0,0,0,19.718,7.03c1.851-.289,2.052,2.612.213,2.9a24.721,24.721,0,0,1-21.83-7.728,1.5,1.5,0,0,1-.151-2.05,1.461,1.461,0,0,1,2.05-.151Z" transform="translate(-124.382 -133.069)" fill="#fff"/>
    <path id="Path_1160" data-name="Path 1160" d="M757.173,580.652c-1.151.213-2.3.427-3.463.662a290.527,290.527,0,0,0-45.425,12.556c-1.149.4-2.308.823-3.443,1.255a306.282,306.282,0,0,0-96.329,58.622,297.436,297.436,0,0,0-31.2,32.695c-13.2,16.123-26.221,34.654-43.465,45.166a51.032,51.032,0,0,1-5.552,3.01l-99.338-41.2c-.179-.207-.368-.392-.548-.6l-4.041-1.464c.451-.636.932-1.287,1.383-1.923.26-.37.542-.731.8-1.1.18-.244.362-.488.511-.718.06-.081.121-.162.171-.221.149-.23.311-.429.451-.636q4.02-5.465,8.13-10.892c.009-.023.009-.023.041-.036,20.951-27.516,44.382-53.525,71.017-75.151.8-.65,1.611-1.324,2.458-1.955A283.829,283.829,0,0,1,547.7,572.764a250.931,250.931,0,0,1,22.758-11.253,208.652,208.652,0,0,1,63.215-16.122c43.431-4.033,87.669,5.869,120.98,33.154C755.5,579.241,756.331,579.931,757.173,580.652Z" transform="translate(-124.382 -133.069)" fill="#f0f0f0"/>
    <path id="Path_1161" data-name="Path 1161" d="M756.427,581.82c-52.975-10.6-109.678-4.339-158.759,18.43-10.611,4.923-20.947,10.84-29.549,18.85s-14.1,17.676-17.565,28.839c-3.167,10.205-5.224,21.011-10.816,30.269-5.895,9.758-15.61,15.712-26.674,17.909-13.537,2.688-27.232.352-40.545-2.4-14.782-3.053-30.088-6.459-45.063-2.646-1.814.462-2.425-2.381-.613-2.842,26.055-6.633,51.4,7.541,77.512,6.058,12.183-.692,24.23-5.06,31.455-15.374,6.318-9.019,8.449-20.16,11.566-30.521,3.273-10.879,8.157-20.616,16.124-28.838,8.151-8.41,18.277-14.744,28.716-19.916,23.542-11.665,49.39-19.181,75.35-22.951a264.377,264.377,0,0,1,89.766,2.367c1.83.366.913,3.127-.9,2.763Z" transform="translate(-124.382 -133.069)" fill="#fff"/>
    <path id="Path_1162" data-name="Path 1162" d="M613.231,592.008a38.974,38.974,0,0,1,20.157-46.266c1.683-.817,3.032,1.759,1.347,2.577a36.089,36.089,0,0,0-18.663,43.076c.549,1.788-2.3,2.392-2.842.614Z" transform="translate(-124.382 -133.069)" fill="#fff"/>
    <path id="Path_1163" data-name="Path 1163" d="M551.478,642.554a75.119,75.119,0,0,0,54.3,6.99c1.816-.456,2.427,2.387.614,2.842A78.134,78.134,0,0,1,549.9,645C548.261,644.092,549.846,641.654,551.478,642.554Z" transform="translate(-124.382 -133.069)" fill="#fff"/>
    <path id="Path_1164" data-name="Path 1164" d="M696.4,576.075a22.061,22.061,0,0,0,11.511,17.484c1.652.884.066,3.321-1.576,2.443a24.721,24.721,0,0,1-12.777-19.314,1.5,1.5,0,0,1,1.114-1.728,1.461,1.461,0,0,1,1.728,1.114Z" transform="translate(-124.382 -133.069)" fill="#fff"/>
    <path id="Path_1165" data-name="Path 1165" d="M567.941,648.631c-13.912-67.267-31.3-89.694-31.3-89.694L530,553.785l-7.989-6.206.039-.8-1.895-.644-.445-.346-.729-.56-.117.126-.248.256-36.152-12.289-45.865-15.579L415.355,490.14a36.734,36.734,0,0,0-29.387-14.334l-67.829.5a36.734,36.734,0,0,0-24.71,9.8l-44.583,41.354-69.469,33.178-.117-.117-.729.521L167.8,566.177l.443,2.306-6.643,4.794s-17.39,20.868-31.3,83.459c-3.539,15.926-5.281,50.09-5.91,92.188a16.069,16.069,0,0,0,16.062,16.307H557.806a16.072,16.072,0,0,0,16.063-16.291C573.254,703.131,571.513,665.9,567.941,648.631Z" transform="translate(-124.382 -133.069)" fill="#c5c5c5"/>
    <path id="Path_1166" data-name="Path 1166" d="M615.548,191.732a54.431,54.431,0,1,0,0,108.861H1021.19a54.431,54.431,0,1,0,0-108.861Z" transform="translate(-124.382 -133.069)" fill="#e5e5e5"/>
    <path id="Path_1167" data-name="Path 1167" d="M615.548,202.747a43.415,43.415,0,0,0,0,86.83H1021.19a43.415,43.415,0,0,0,0-86.83Z" transform="translate(-124.382 -133.069)" fill="#fff"/>
    <circle id="ab6171fa-7d69-4734-b81c-8dff60f9761b" cx="88.863" cy="88.863" r="88.863" transform="translate(149.46 139.529)" fill="#bcbcbc"/>
    <path id="Path_1168" data-name="Path 1168" d="M339.972,445.973q-.569-1.254-1.136-2.516c.146,0,.29.026.435.029Z" transform="translate(-124.382 -133.069)" fill="#2f2e41"/>
    <path id="Path_1169" data-name="Path 1169" d="M271.371,276.64c4.494-3.585,9.747-6.884,15.494-6.7s11.573,5.375,10.383,11a91.318,91.318,0,0,1,109.9-41.208c14.282,5.039,28.287,15.119,31.568,29.9.842,3.8,1.023,7.957,3.393,11.039,2.988,3.886,8.7,4.765,13.412,3.4l.141-.042a4.2,4.2,0,0,1,5.073,5.927l-4.041,7.536a32.383,32.383,0,0,0,15.428-.328,4.195,4.195,0,0,1,4.455,6.528c-13.325,18.294-35.586,30.108-58.3,29.969-16.146-.1-32.458-5.663-48.172-1.95a41.844,41.844,0,0,0-28.144,58.74c-4.827-5.28-14.159-4.03-19.1,1.147s-6.216,12.9-5.719,20.041c.761,10.916,5.038,21.2,9.546,31.212-37.8-1.19-73.555-27.707-85.59-63.572C229.008,343.267,241.674,300.33,271.371,276.64Z" transform="translate(-124.382 -133.069)" fill="#2f2e41"/>
    <path id="Path_1170" data-name="Path 1170" d="M87.464,495.253,112.388,630.86l14.955,1.3Z" opacity="0.2"/>
    <path id="Path_1171" data-name="Path 1171" d="M362.007,485.026,337.083,630.762l-14.955,1.4Z" opacity="0.2"/>
    <path id="Path_1172" data-name="Path 1172" d="M292.629,231c-4.779,2-9.765-.191-11.857-5.2-2.123-5.085-.14-10.247,4.715-12.274s9.754.165,11.911,5.331C299.524,223.948,297.563,228.941,292.629,231Zm-9.154-27.482-3.8,1.587a4.1,4.1,0,0,1-5.206-1.909l-.188-.368c-4.088-7.373-4.557-16.335-1.384-26.621,2.939-9.227,4.16-15.717,1.7-21.6-2.838-6.8-8.9-8.927-16.628-5.842-3,1.252-3.952,1.232-6.311,3.572a5.416,5.416,0,0,1-3.921,1.593,5.235,5.235,0,0,1-3.747-1.643,5.348,5.348,0,0,1-.037-7.3A41.535,41.535,0,0,1,258,135.35c16.607-6.934,24.966,3.3,28.792,12.465,3.742,8.961,1.637,17.275-1.745,28.043-2.834,8.948-2.669,15.577.55,22.17a4.081,4.081,0,0,1-2.126,5.491Z" transform="translate(-124.382 -133.069)" fill="#bebebe"/>
    <path id="Path_1173" data-name="Path 1173" d="M705.149,272.122H624.442a1.944,1.944,0,0,1,0-3.888h80.707a1.944,1.944,0,1,1,0,3.888Z" transform="translate(-124.382 -133.069)" fill="#c2bfbb"/>
    <path id="Path_1174" data-name="Path 1174" d="M807.53,272.77H726.823a1.944,1.944,0,1,1,0-3.888H807.53a1.944,1.944,0,0,1,0,3.888Z" transform="translate(-124.382 -133.069)" fill="#c2bfbb"/>
    <path id="Path_1175" data-name="Path 1175" d="M909.912,273.418H829.205a1.944,1.944,0,0,1,0-3.888h80.707a1.944,1.944,0,1,1,0,3.888Z" transform="translate(-124.382 -133.069)" fill="#c2bfbb"/>
    <path id="Path_1176" data-name="Path 1176" d="M1012.29,274.066H931.583a1.944,1.944,0,0,1,0-3.888h80.707a1.944,1.944,0,1,1,0,3.888Z" transform="translate(-124.382 -133.069)" fill="#c2bfbb"/>
    <circle id="Ellipse_704" data-name="Ellipse 704" cx="15" cy="15" r="15" transform="translate(525.235 91.162)" fill="#f90"/>
    <circle id="Ellipse_705" data-name="Ellipse 705" cx="15" cy="15" r="15" transform="translate(628.235 91.162)" fill="#f90"/>
    <circle id="Ellipse_706" data-name="Ellipse 706" cx="15" cy="15" r="15" transform="translate(731.235 91.162)" fill="#f90"/>
    <circle id="Ellipse_707" data-name="Ellipse 707" cx="15" cy="15" r="15" transform="translate(834.235 91.162)" fill="#f90"/>
  </g>
</svg>
